# xmcd
#
# Track frame offsets: 
#        150
#        1250
#        33674
#        59709
#        88996
#        115540
#        148293
#        179205
#        209178
#        233502
#        259905
#        288562
#
# Disc length: 4173 seconds
#
# Revision: 0
# Processed by: cddbd v1.5.2PL0 Copyright (c) Steve Scherf et al.
# Submitted via: ExactAudioCopy v1.0b3
#
DISCID=c1104b0c
DTITLE=DragonForce - Valley Of The Damned Delux Edition
DYEAR=2010
DGENRE=Metal
TTITLE0=Invocation Of Appolyptic Evil
TTITLE1=Valley Of The Damned
TTITLE2=Black Fire
TTITLE3=Black Winter Night
TTITLE4=Starfire
TTITLE5=Disciples Of Babylon
TTITLE6=Revelations
TTITLE7=Evening Star
TTITLE8=Heart Of A Dragon
TTITLE9=Where Dragons Rule
TTITLE10=Evening Star (Demo)
TTITLE11=Heart Of A Dragon (Demo)
EXTD=
EXTT0=
EXTT1=
EXTT2=
EXTT3=
EXTT4=
EXTT5=
EXTT6=
EXTT7=
EXTT8=
EXTT9=
EXTT10=
EXTT11=
PLAYORDER=
